<svg width="952" height="594" viewBox="0 0 952 594" fill="none" xmlns="http://www.w3.org/2000/svg">
<path d="M349.581 101.738C233.021 97.1041 122.826 15.4259 60.6669 2.68173C60.6669 2.68173 18.8962 -6.0072 0 7.89535V495.068C0 530.983 49.1318 519.493 70.6124 513.605C95.9731 506.654 216.098 514.24 227.252 517.66C236.7 520.556 360.024 544.886 398.313 567.478C437.21 590.428 581.077 598.299 601.697 591.808C620.096 586.015 736.881 570.481 810.053 580.801C920.944 596.442 939.343 508.971 939.343 508.971C939.343 508.971 973.158 401.225 929.398 276.68C885.638 152.135 768.78 126.068 743.419 115.062C704.63 98.2279 599.708 95.9455 559.926 95.9455C519.351 95.9455 495.281 107.531 349.581 101.738Z" fill="#FFB703"/>
<path d="M294.394 170.5C178.281 142.262 130.787 94.8458 75.5877 143C41.7722 172.5 37.9928 344.4 64.6474 418C97.9656 510 238.259 439.777 298.372 434C366.003 427.5 441.591 466 492.812 490C518.31 501.947 600.259 523.5 715.099 523.5C814.557 523.5 851.356 429.5 856.826 394C858.815 339.167 848.372 206 693.218 179C496.395 144.749 432.143 204 294.394 170.5Z" fill="#FFC83C"/>
</svg>
