<svg width="1115" height="858" viewBox="0 0 1115 858" fill="none" xmlns="http://www.w3.org/2000/svg">
<path d="M806.329 17C893.453 -12.2 1047.84 4.83336 1114.15 17V771C1110.17 796 1142 821.5 1015.69 803C905.816 786.908 814.285 764 711.347 796L513.426 838C439.828 848 242.902 884.104 137.975 821.5C2.21504 740.5 0.225911 630.805 0.225922 579.5C0.225931 536.5 25.7533 455.5 49.9547 423.5C63.946 405 103.577 365.476 142.947 340C193.173 307.5 331.884 268.396 366.727 261C456.238 242 493.905 218.044 552.215 161C607.414 107 697.423 53.5 806.329 17Z" fill="#FFB703"/>
<path d="M174.276 457.5C102.269 543.5 120.072 638 140.958 682C150.075 697.833 184.325 741.876 198.643 754C208.092 762 248.839 790.066 286.166 798.5C330.425 808.5 487.957 795.993 513.426 791.5C541.772 786.5 634.745 758.568 683.996 728C724.276 703 787.597 674.667 816.771 666C859.206 658.167 953.824 642.5 996.789 648.5C1039.75 654.5 1090.94 681.667 1111.17 694.5V237.5L1110.98 237.149C1105.16 226.128 1087.96 193.571 1057.46 154C1018.82 103.878 949.547 100.5 916.726 100.5C884.633 100.5 780.469 129.5 729.249 205.5C688.272 266.3 578.074 317 519.891 326C442.314 335 246.284 371.5 174.276 457.5Z" fill="#FFC83C"/>
</svg>
